<?xml version="1.0" encoding="UTF-8" standalone="no"?>
<!-- Generator:9va-0.5.5 (9va-win) http://9vae.blogspot.jp/ -->

<svg
   image-rendering="optimizeSpeed"
   version="1.1"
   id="000.svg"
   viewBox="0 0 354 354"
   sodipodi:docname="1494845906.svg"
   inkscape:version="1.2.2 (b0a8486541, 2022-12-01)"
   xmlns:inkscape="http://www.inkscape.org/namespaces/inkscape"
   xmlns:sodipodi="http://sodipodi.sourceforge.net/DTD/sodipodi-0.dtd"
   xmlns:xlink="http://www.w3.org/1999/xlink"
   xmlns="http://www.w3.org/2000/svg"
   xmlns:svg="http://www.w3.org/2000/svg">
  <sodipodi:namedview
     id="namedview375"
     pagecolor="#ffffff"
     bordercolor="#666666"
     borderopacity="1.0"
     inkscape:showpageshadow="2"
     inkscape:pageopacity="0.0"
     inkscape:pagecheckerboard="0"
     inkscape:deskcolor="#d1d1d1"
     showgrid="false"
     inkscape:zoom="2.460452"
     inkscape:cx="92.665901"
     inkscape:cy="177.20321"
     inkscape:window-width="1920"
     inkscape:window-height="1027"
     inkscape:window-x="0"
     inkscape:window-y="0"
     inkscape:window-maximized="1"
     inkscape:current-layer="000.svg" />
  <defs
     id="defs298">
    <mask
       id="SVG_Canvas">
      <rect
         fill="#FFFFFF"
         x="0"
         y="0"
         width="354"
         height="354"
         id="rect244" />
    </mask>
    <symbol
       id="AC_9va.svg_a8"
       overflow="visible"
       preserveAspectRatio="none">
      <path
         fill="#ffffff"
         stroke="#000000"
         stroke-width="3.00"
         d="M65.50,75.69C65.31,75.81 65.00,76.19 64.13,77.25 C63.38,78.06 62.38,79.25 60.56,81.50 C58.50,83.94 56.31,86.63 54.00,89.50 C51.75,92.19 50.19,94.06 48.88,95.75 C47.44,97.44 46.81,98.25 46.50,98.69 C46.13,99.06 45.50,99.81 44.06,101.56 C42.69,103.19 41.06,105.06 38.88,107.81 C36.50,110.63 34.31,113.31 32.31,115.75 C30.44,118.00 29.44,119.13 28.75,120.06 C27.88,121.13 27.56,121.50 27.50,121.69 L6.50,99.69 C6.63,99.44 6.94,98.94 8.06,97.50 C8.94,96.25 10.13,94.69 12.44,91.69 C14.88,88.38 17.63,84.81 20.56,81.00 C23.31,77.31 25.31,74.75 27.00,72.56 C28.75,70.25 29.56,69.19 30.00,68.69 C30.38,68.13 31.19,67.06 32.94,64.75 C34.56,62.50 36.50,59.94 39.31,56.31 C42.19,52.44 44.94,48.81 47.44,45.56 C49.75,42.50 50.94,40.94 51.88,39.75 C52.94,38.31 53.31,37.81 53.50,37.69 L101.50,29.69 C101.63,29.63 102.00,29.50 103.31,29.25 C104.25,28.94 105.63,28.63 108.69,28.31 C111.94,27.88 115.63,27.56 120.00,27.44 C124.19,27.25 127.38,27.31 130.31,27.44  C133.25,27.50 134.75,27.56 135.50,27.69 C136.25,27.75 137.94,27.94 141.88,28.56 C145.50,29.06 149.94,29.75 156.63,31.00 C163.69,32.25 170.56,33.63 177.06,35.00 C183.06,36.19 186.38,37.00 189.00,37.63 C191.94,38.25 193.06,38.56 193.50,38.69 C193.69,38.88 194.31,39.44 196.19,41.00 C197.69,42.25 199.75,43.94 203.69,47.31 C207.88,50.88 212.50,54.81 217.50,59.06 C222.19,63.06 225.50,65.94 228.38,68.38 C231.38,70.94 232.81,72.06 233.50,72.69 C234.13,73.19 235.50,74.38 238.50,76.94 C241.31,79.31 244.63,82.13 249.38,86.19 C254.31,90.38 258.94,94.31 263.19,97.94 C267.06,101.25 269.13,102.94 270.69,104.31 C272.56,105.88 273.19,106.44 273.50,106.69 L256.50,139.69 C256.31,139.50 255.81,139.13 254.50,138.06 C253.38,137.13 251.88,136.00 249.13,133.75 C246.06,131.31 242.81,128.63 239.31,125.81 C235.94,123.06 233.56,121.19 231.56,119.56 C229.44,117.81 228.44,117.06 228.00,116.69 C227.50,116.25 226.50,115.44 224.38,113.75 C222.31,112.06 219.94,110.19 216.56,107.50 C213.00,104.63 209.75,101.94 206.75,99.50  C203.94,97.25 202.50,96.06 201.44,95.25 C200.13,94.19 199.63,93.81 199.50,93.69 L226.50,176.69 C226.44,176.75 226.38,176.88 226.19,177.44 C226.00,177.88 225.81,178.44 225.38,179.50 C224.81,180.63 224.13,181.81 223.38,183.06 C222.63,184.19 222.00,184.94 221.50,185.56 C220.94,186.19 220.63,186.50 220.50,186.69 C220.31,186.75 219.94,187.00 219.06,187.44 C218.25,187.81 217.25,188.31 215.81,189.00 C214.19,189.63 212.63,190.19 211.19,190.69 C209.81,191.13 209.06,191.25 208.50,191.44 C207.81,191.56 207.56,191.63 207.50,191.69 L181.50,194.69 L77.50,194.69 L49.50,188.69 C49.38,188.63 49.25,188.63 48.75,188.63 C48.25,188.63 47.69,188.56 46.75,188.44 C45.69,188.19 44.63,187.94 43.56,187.56 C42.50,187.13 41.88,186.75 41.38,186.38 C40.81,186.00 40.56,185.75 40.50,185.69 C40.38,185.50 40.19,185.19 39.88,184.44 C39.50,183.69 39.13,182.88 38.75,181.56 C38.31,180.13 38.00,178.69 37.81,177.31 C37.56,176.00 37.56,175.25 37.56,174.69 C37.50,174.00 37.50,173.75 37.50,173.69 L65.50,75.69  L65.50,75.69 Z"
         id="path247" />
      <path
         fill="none"
         stroke="#000000"
         stroke-width="2.00"
         d="M101.50,29.69C101.44,29.81 101.50,30.13 101.63,31.19 C101.69,32.00 101.81,33.19 102.19,35.25 C102.50,37.44 102.94,39.81 103.50,42.31 C103.94,44.63 104.38,46.13 104.75,47.44 C105.13,48.81 105.38,49.38 105.50,49.69 C105.56,49.88 105.69,50.31 106.13,51.31 C106.44,52.19 106.81,53.25 107.69,54.69 C108.56,56.06 109.50,57.38 110.63,58.56 C111.63,59.63 112.44,60.25 113.19,60.75 C113.88,61.31 114.25,61.56 114.50,61.69 C114.63,61.81 114.94,62.13 115.81,62.69 C116.56,63.19 117.50,63.81 119.06,64.63 C120.69,65.38 122.38,66.06 124.13,66.63 C125.75,67.13 126.88,67.31 127.81,67.44 C128.81,67.63 129.25,67.63 129.50,67.69 C129.69,67.69 130.06,67.75 131.00,67.81 C131.81,67.88 132.81,67.94 134.31,67.88 C135.81,67.69 137.31,67.44 138.88,67.13 C140.31,66.75 141.25,66.44 142.06,66.19 C142.88,65.88 143.31,65.75 143.50,65.69 C143.63,65.63 144.06,65.50 144.88,65.31 C145.56,65.13 146.44,64.88 147.81,64.38 C149.19,63.81 150.63,63.13 152.06,62.44 C153.38,61.69 154.25,61.13 155.06,60.63  C155.88,60.06 156.25,59.81 156.50,59.69 C156.69,59.50 157.13,59.19 158.13,58.50 C159.00,57.81 160.00,57.06 161.63,55.75 C163.25,54.31 164.88,52.88 166.44,51.38 C167.81,49.88 168.63,48.94 169.31,48.13 C170.06,47.25 170.31,46.81 170.50,46.69 C170.63,46.44 170.88,46.00 171.44,45.13 C171.94,44.25 172.44,43.19 173.13,41.81 C173.75,40.31 174.31,38.94 174.75,37.69 C175.13,36.50 175.19,35.88 175.31,35.44 C175.44,34.88 175.44,34.69 175.50,34.69 "
         id="path249" />
      <path
         fill="#ffffff"
         stroke="#000000"
         stroke-width="3.00"
         d="M181.50,194.69C181.50,194.75 181.56,195.13 181.75,196.06 C181.88,196.81 182.00,197.81 182.44,199.88 C182.81,202.00 183.31,204.44 183.88,207.00 C184.31,209.38 184.63,211.06 184.94,212.56 C185.25,214.06 185.38,214.81 185.50,215.19 C185.50,215.50 185.63,216.19 185.94,217.75 C186.19,219.19 186.56,220.88 187.06,223.31 C187.56,225.81 188.00,228.19 188.44,230.38 C188.81,232.38 189.00,233.44 189.19,234.25 C189.38,235.19 189.44,235.50 189.50,235.69 C189.56,235.56 189.75,235.38 190.31,234.81 C190.75,234.31 191.38,233.69 192.63,232.63 C193.88,231.44 195.25,230.25 196.75,229.06 C198.13,227.88 199.13,227.19 200.00,226.63 C200.88,226.00 201.25,225.75 201.50,225.69 C201.63,225.56 201.94,225.31 202.69,224.94 C203.31,224.50 204.13,224.06 205.31,223.63 C206.50,223.13 207.69,222.81 208.88,222.63 C210.00,222.44 210.75,222.44 211.38,222.56 C212.00,222.56 212.31,222.63 212.50,222.69 C212.63,222.63 213.00,222.56 213.81,222.63 C214.50,222.56 215.31,222.56 216.56,222.88  C217.81,223.13 219.00,223.50 220.06,224.13 C221.00,224.69 221.44,225.19 221.81,225.75 C222.25,226.25 222.38,226.50 222.50,226.69 C222.56,226.75 222.75,227.00 223.06,227.75 C223.38,228.31 223.75,229.13 224.00,230.50 C224.13,231.88 224.06,233.38 223.75,234.94 C223.38,236.38 222.88,237.31 222.38,238.19 C221.88,239.06 221.63,239.44 221.50,239.69 C221.31,239.88 221.00,240.25 220.19,241.13 C219.44,241.94 218.50,242.94 216.81,244.25 C214.94,245.56 213.00,246.75 210.94,247.75 C208.94,248.63 207.63,249.00 206.50,249.25 C205.25,249.56 204.75,249.63 204.50,249.69 C204.19,249.69 203.69,249.75 202.63,249.69 C201.56,249.63 200.38,249.50 198.75,249.06 C197.00,248.50 195.44,247.75 194.00,246.88 C192.63,246.00 191.94,245.31 191.44,244.75 C190.75,244.13 190.56,243.81 190.50,243.69 C190.31,243.50 190.06,243.25 189.75,242.63 C189.38,242.00 189.00,241.31 188.69,240.31 C188.38,239.19 188.19,238.13 188.19,237.13 C188.13,236.19 188.25,235.69 188.38,235.31 C188.44,234.88 188.44,234.69 188.50,234.69 "
         id="path251" />
      <path
         fill="#ffffff"
         stroke="#000000"
         stroke-width="3.00"
         d="M77.50,194.69C77.44,194.75 77.31,194.94 77.06,195.63 C76.81,196.13 76.50,196.88 75.94,198.31 C75.25,199.81 74.56,201.56 73.88,203.44 C73.13,205.19 72.63,206.50 72.25,207.63 C71.75,208.81 71.56,209.38 71.50,209.69 C71.38,209.94 71.13,210.50 70.69,211.81 C70.25,213.00 69.75,214.44 69.06,216.56 C68.31,218.75 67.63,220.81 67.00,222.81 C66.38,224.63 66.06,225.56 65.88,226.38 C65.56,227.25 65.50,227.56 65.50,227.69 C65.44,227.63 65.31,227.50 65.06,227.31 C64.81,227.13 64.50,226.88 63.81,226.50 C63.00,226.00 62.00,225.50 60.88,225.06 C59.69,224.56 58.81,224.25 58.00,224.06 C57.13,223.81 56.69,223.69 56.50,223.69 C56.25,223.56 55.69,223.38 54.50,223.06 C53.38,222.69 52.00,222.25 49.88,221.88 C47.50,221.44 45.19,221.13 42.94,221.00 C40.75,220.88 39.44,221.00 38.38,221.25 C37.19,221.38 36.69,221.56 36.50,221.69 C36.19,221.75 35.69,221.94 34.81,222.56 C33.88,223.06 32.88,223.75 31.81,225.06 C30.63,226.44 29.75,228.00 29.13,229.63 C28.50,231.13 28.38,232.19 28.44,233.13  C28.31,234.06 28.38,234.44 28.50,234.69 C28.44,234.81 28.38,235.13 28.56,235.88 C28.63,236.50 28.81,237.31 29.50,238.38 C30.19,239.44 31.13,240.38 32.31,241.31 C33.38,242.13 34.25,242.63 35.06,243.00 C35.81,243.44 36.25,243.56 36.50,243.69 C36.63,243.75 36.94,243.94 37.75,244.31 C38.44,244.63 39.31,245.00 40.75,245.44 C42.25,245.81 43.81,246.19 45.44,246.44 C46.94,246.63 47.94,246.63 48.88,246.63 C49.81,246.63 50.25,246.63 50.50,246.69 C50.69,246.69 51.06,246.69 52.00,246.75 C52.81,246.75 53.81,246.81 55.31,246.75 C56.81,246.56 58.25,246.38 59.69,246.06 C61.00,245.75 61.75,245.44 62.38,245.19 C63.06,244.88 63.31,244.75 63.50,244.69 C63.63,244.56 63.94,244.44 64.56,244.06 C65.13,243.69 65.75,243.25 66.56,242.50 C67.31,241.63 68.00,240.69 68.56,239.75 C69.00,238.81 69.19,238.13 69.31,237.63 C69.44,237.00 69.50,236.75 69.50,236.69 C69.50,236.50 69.50,236.19 69.44,235.56 C69.38,234.88 69.25,234.19 69.00,233.13 C68.63,232.00 68.25,230.94 67.81,230.00 C67.38,229.06 67.06,228.63 66.88,228.31  C66.63,227.88 66.50,227.69 66.50,227.69 "
         id="path253" />
      <text
         fill="#000000"
         text-anchor="middle"
         font-family="sans-serif"
         x="129.6250"
         y="124.8375"
         font-size="46"
         id="text255">
9VAe
</text>
      <text
         fill="#000000"
         text-anchor="middle"
         font-family="sans-serif"
         x="129.6250"
         y="170.8375"
         font-size="46"
         id="text257">
Replay</text>
    </symbol>
    <symbol
       id="AC_reye_a5"
       overflow="visible"
       preserveAspectRatio="none">
      <path
         fill="#ffffff"
         stroke="none"
         d="M112.94,117.19C113.00,117.13 113.13,117.13 113.50,117.13 C113.81,117.06 114.19,117.00 114.88,117.06 C115.50,117.06 116.19,117.13 116.94,117.25 C117.56,117.31 118.00,117.38 118.38,117.50 C118.75,117.56 118.88,117.63 119.00,117.69 C119.31,117.69 120.00,117.75 121.38,118.44 C122.75,118.88 124.25,119.63 126.06,121.38 C127.88,123.25 129.25,125.44 130.25,127.81 C131.06,130.00 131.06,131.63 130.94,133.00 C130.88,134.38 130.69,135.00 130.56,135.31 C130.56,135.63 130.44,136.25 129.81,137.50 C129.31,138.75 128.56,140.19 126.81,141.81 C124.81,143.44 122.56,144.69 120.13,145.56 C117.75,146.25 116.06,146.19 114.69,146.00 C113.19,145.94 112.50,145.75 112.19,145.63 C111.81,145.56 111.13,145.44 109.81,144.81 C108.44,144.25 106.88,143.50 105.13,141.81 C103.25,139.88 101.81,137.63 100.88,135.25 C100.06,132.94 100.06,131.38 100.25,130.06 C100.25,128.63 100.44,128.00 100.63,127.75 C100.63,127.50 100.69,127.00 101.13,126.06 C101.38,125.06 101.88,124.00 103.06,122.63  C104.31,121.13 105.81,119.94 107.50,118.94 C109.06,118.00 110.19,117.69 111.19,117.50 C112.19,117.19 112.69,117.13 112.94,117.19 L112.94,117.19 Z"
         id="path260" />
    </symbol>
    <symbol
       id="BKp1a4"
       overflow="visible"
       preserveAspectRatio="none">
      <path
         fill="#ff0066"
         stroke="none"
         d="M105.63,109.63C104.94,109.44 103.63,109.25 100.69,109.63 C97.81,109.69 94.50,110.06 90.00,112.06 C85.13,114.25 80.75,117.19 77.06,120.81 C73.69,124.25 72.25,127.13 71.38,129.75 C70.13,132.31 69.88,133.56 69.88,134.25 C69.50,134.88 69.06,136.38 69.06,139.63 C68.63,142.75 68.63,146.44 70.56,151.63 C72.81,157.13 76.13,162.19 80.44,166.63 C84.50,170.56 88.06,172.25 91.25,173.44 C94.38,174.94 95.94,175.25 96.81,175.31 C97.56,175.63 99.13,176.13 102.63,176.31 C105.94,176.75 109.88,176.88 115.38,175.31 C121.19,173.38 126.50,170.50 131.13,166.69 C135.25,162.94 137.00,159.69 138.13,156.75 C139.63,153.81 139.88,152.38 139.88,151.63 C140.19,150.94 140.63,149.50 140.69,146.31 C141.06,143.19 141.06,139.50 139.19,134.31 C136.88,128.75 133.56,123.69 129.31,119.31 C125.19,115.31 121.63,113.56 118.50,112.44 C115.31,110.94 113.75,110.63 112.94,110.63 C112.81,110.56 112.63,110.50 112.19,110.44 C111.75,110.31 111.25,110.19 110.50,110.13 C109.63,110.00 108.81,109.88 108.00,109.81  C107.19,109.69 106.75,109.69 106.38,109.69 C105.88,109.63 105.69,109.63 105.63,109.63 L105.63,109.63 Z"
         id="path263" />
    </symbol>
    <symbol
       id="AC_rightEye_a4"
       overflow="visible"
       preserveAspectRatio="none">
      <rect
         id="rect266">
        <!--9vaC05-->
        <animate
           id="Sa4"
           repeatCount="indefinite"
           begin="0.00s"
           dur="2.00s"
           attributeName="visibility"
           from="hidden"
           to="hidden" />
      </rect>
      <use
         xlink:href="#BKp1a4"
         id="use268">
        <set
           fill="freeze"
           begin="Sa4.begin"
           attributeName="display"
           to="inline" />
      </use>
      <g
         id="P2a4:loop2,0">
        <use
           xlink:href="#AC_reye_a5"
           id="use270">
          <animateTransform
             repeatCount="indefinite"
             begin="Sa4.begin+0s"
             dur="2s"
             keyTimes="0;1"
             attributeName="transform"
             type="translate"
             values="104.8750,143.0000;104.8750,143.0000" />
          <animateTransform
             repeatCount="indefinite"
             begin="Sa4.begin+0s"
             dur="2s"
             keyTimes="0;1"
             attributeName="transform"
             type="scale"
             values="0.9991,1.0000;0.9991,1.0000"
             additive="sum" />
          <animateTransform
             repeatCount="indefinite"
             begin="Sa4.begin+0s"
             dur="2s"
             keyTimes="0;1"
             attributeName="transform"
             type="rotate"
             values="0.0000;360.0000"
             additive="sum" />
          <animateTransform
             repeatCount="indefinite"
             begin="Sa4.begin+0s"
             dur="2s"
             keyTimes="0;1"
             attributeName="transform"
             type="translate"
             values="-104.8750,-143.0000;-104.8750,-143.0000"
             additive="sum" />
        </use>
      </g>
    </symbol>
    <symbol
       id="AS_rightEye_a4"
       overflow="visible"
       preserveAspectRatio="none">
      <path
         fill="#ff0066"
         stroke="none"
         d="M105.63,109.63C104.94,109.44 103.63,109.25 100.69,109.63 C97.81,109.69 94.50,110.06 90.00,112.06 C85.13,114.25 80.75,117.19 77.06,120.81 C73.69,124.25 72.25,127.13 71.38,129.75 C70.13,132.31 69.88,133.56 69.88,134.25 C69.50,134.88 69.06,136.38 69.06,139.63 C68.63,142.75 68.63,146.44 70.56,151.63 C72.81,157.13 76.13,162.19 80.44,166.63 C84.50,170.56 88.06,172.25 91.25,173.44 C94.38,174.94 95.94,175.25 96.81,175.31 C97.56,175.63 99.13,176.13 102.63,176.31 C105.94,176.75 109.88,176.88 115.38,175.31 C121.19,173.38 126.50,170.50 131.13,166.69 C135.25,162.94 137.00,159.69 138.13,156.75 C139.63,153.81 139.88,152.38 139.88,151.63 C140.19,150.94 140.63,149.50 140.69,146.31 C141.06,143.19 141.06,139.50 139.19,134.31 C136.88,128.75 133.56,123.69 129.31,119.31 C125.19,115.31 121.63,113.56 118.50,112.44 C115.31,110.94 113.75,110.63 112.94,110.63 C112.81,110.56 112.63,110.50 112.19,110.44 C111.75,110.31 111.25,110.19 110.50,110.13 C109.63,110.00 108.81,109.88 108.00,109.81  C107.19,109.69 106.75,109.69 106.38,109.69 C105.88,109.63 105.69,109.63 105.63,109.63 L105.63,109.63 Z"
         id="path274" />
      <use
         xlink:href="#AC_reye_a5"
         transform="translate(104.8750,143.0000) scale(0.9991,1.0000) rotate(0.0000) translate(-104.8750,-143.0000) "
         id="use276" />
    </symbol>
    <symbol
       id="AC_leye_a3"
       overflow="visible"
       preserveAspectRatio="none">
      <path
         fill="#ffffff"
         stroke="none"
         d="M218.94,71.19C219.00,71.13 219.19,71.06 219.75,71.06 C220.19,71.00 220.75,70.94 221.75,71.00 C222.69,71.00 223.69,71.00 224.75,71.13 C225.69,71.19 226.31,71.38 226.81,71.50 C227.31,71.56 227.56,71.63 227.69,71.69 C228.19,71.69 229.19,71.88 231.19,72.81 C233.13,73.50 235.38,74.63 237.94,77.13 C240.56,79.88 242.69,83.00 244.13,86.50 C245.31,89.69 245.31,92.00 245.13,94.00 C245.06,96.00 244.75,96.94 244.56,97.38 C244.56,97.81 244.38,98.75 243.50,100.56 C242.81,102.38 241.69,104.38 239.19,106.69 C236.31,109.00 233.00,110.81 229.44,112.00 C226.00,112.94 223.56,112.81 221.50,112.56 C219.31,112.44 218.31,112.13 217.88,111.94 C217.38,111.88 216.38,111.69 214.44,110.81 C212.44,110.06 210.25,109.00 207.69,106.56 C205.00,103.81 202.88,100.69 201.50,97.31 C200.25,94.06 200.25,91.81 200.50,89.88 C200.50,87.81 200.81,86.88 201.06,86.50 C201.06,86.13 201.19,85.50 201.81,84.13 C202.25,82.69 202.94,81.13 204.63,79.13 C206.44,77.00 208.56,75.19 211.00,73.75 C213.25,72.38 214.88,71.88 216.38,71.63  C217.88,71.19 218.56,71.13 218.94,71.19 L218.94,71.19 Z"
         id="path279" />
    </symbol>
    <symbol
       id="BKp1a2"
       overflow="visible"
       preserveAspectRatio="none">
      <path
         fill="#ff0066"
         stroke="none"
         d="M237.81,59.88C236.94,59.69 235.19,59.63 231.50,60.44 C227.88,60.81 223.63,61.69 217.94,64.63 C211.88,67.88 206.44,71.94 201.81,76.88 C197.56,81.56 195.75,85.31 194.63,88.69 C193.06,92.00 192.75,93.69 192.75,94.56 C192.25,95.50 191.56,97.50 191.56,102.06 C191.00,106.38 190.94,111.56 193.63,118.81 C196.75,126.50 201.38,133.63 207.31,139.81 C213.00,145.31 217.94,147.75 222.44,149.38 C226.81,151.44 229.06,151.88 230.25,151.94 C231.25,152.38 233.44,153.06 238.31,153.31 C242.94,153.94 248.44,154.13 256.13,151.94 C264.19,149.19 271.63,145.06 278.00,139.75 C283.69,134.56 286.13,130.00 287.69,125.94 C289.75,121.88 290.06,119.81 290.13,118.75 C290.56,117.75 291.25,115.75 291.31,111.25 C291.88,106.88 291.88,101.75 289.25,94.56 C286.06,86.88 281.44,79.81 275.50,73.69 C269.75,68.13 264.81,65.75 260.38,64.19 C256.00,62.06 253.75,61.63 252.63,61.63 C252.44,61.56 252.00,61.44 251.13,61.25 C250.25,61.00 249.25,60.81 247.69,60.56 C245.94,60.25 244.25,60.06 242.63,59.94  C241.00,59.75 240.00,59.75 239.25,59.81 C238.31,59.81 237.94,59.81 237.81,59.88 L237.81,59.88 Z"
         id="path282" />
    </symbol>
    <symbol
       id="AC_leftEye_a2"
       overflow="visible"
       preserveAspectRatio="none">
      <rect
         id="rect285">
        <!--9vaC05-->
        <animate
           id="Sa2"
           repeatCount="indefinite"
           begin="0.00s"
           dur="2.00s"
           attributeName="visibility"
           from="hidden"
           to="hidden" />
      </rect>
      <use
         xlink:href="#BKp1a2"
         id="use287">
        <set
           fill="freeze"
           begin="Sa2.begin"
           attributeName="display"
           to="inline" />
      </use>
      <g
         id="P2a2:loop2,0">
        <use
           xlink:href="#AC_leye_a3"
           id="use289">
          <animateTransform
             repeatCount="indefinite"
             begin="Sa2.begin+0s"
             dur="2s"
             keyTimes="0;1"
             attributeName="transform"
             type="translate"
             values="241.4375,106.5625;241.4375,106.5625" />
          <animateTransform
             repeatCount="indefinite"
             begin="Sa2.begin+0s"
             dur="2s"
             keyTimes="0;1"
             attributeName="transform"
             type="scale"
             values="0.9994,0.9993;0.9994,0.9993"
             additive="sum" />
          <animateTransform
             repeatCount="indefinite"
             begin="Sa2.begin+0s"
             dur="2s"
             keyTimes="0;1"
             attributeName="transform"
             type="rotate"
             values="0.0000;360.0000"
             additive="sum" />
          <animateTransform
             repeatCount="indefinite"
             begin="Sa2.begin+0s"
             dur="2s"
             keyTimes="0;1"
             attributeName="transform"
             type="translate"
             values="-241.4375,-106.5625;-241.4375,-106.5625"
             additive="sum" />
        </use>
      </g>
    </symbol>
    <symbol
       id="AS_leftEye_a2"
       overflow="visible"
       preserveAspectRatio="none">
      <path
         fill="#ff0066"
         stroke="none"
         d="M237.81,59.88C236.94,59.69 235.19,59.63 231.50,60.44 C227.88,60.81 223.63,61.69 217.94,64.63 C211.88,67.88 206.44,71.94 201.81,76.88 C197.56,81.56 195.75,85.31 194.63,88.69 C193.06,92.00 192.75,93.69 192.75,94.56 C192.25,95.50 191.56,97.50 191.56,102.06 C191.00,106.38 190.94,111.56 193.63,118.81 C196.75,126.50 201.38,133.63 207.31,139.81 C213.00,145.31 217.94,147.75 222.44,149.38 C226.81,151.44 229.06,151.88 230.25,151.94 C231.25,152.38 233.44,153.06 238.31,153.31 C242.94,153.94 248.44,154.13 256.13,151.94 C264.19,149.19 271.63,145.06 278.00,139.75 C283.69,134.56 286.13,130.00 287.69,125.94 C289.75,121.88 290.06,119.81 290.13,118.75 C290.56,117.75 291.25,115.75 291.31,111.25 C291.88,106.88 291.88,101.75 289.25,94.56 C286.06,86.88 281.44,79.81 275.50,73.69 C269.75,68.13 264.81,65.75 260.38,64.19 C256.00,62.06 253.75,61.63 252.63,61.63 C252.44,61.56 252.00,61.44 251.13,61.25 C250.25,61.00 249.25,60.81 247.69,60.56 C245.94,60.25 244.25,60.06 242.63,59.94  C241.00,59.75 240.00,59.75 239.25,59.81 C238.31,59.81 237.94,59.81 237.81,59.88 L237.81,59.88 Z"
         id="path293" />
      <use
         xlink:href="#AC_leye_a3"
         transform="translate(241.4375,106.5625) scale(0.9994,0.9993) rotate(0.0000) translate(-241.4375,-106.5625) "
         id="use295" />
    </symbol>
    <mask
       maskUnits="userSpaceOnUse"
       id="mask427">
      <g
         id="g431"
         transform="matrix(2.528445,0,0,2.5316456,-603.11181,-634.2223)">
        <rect
           fill="#ffffff"
           x="0"
           y="0"
           width="354"
           height="354"
           id="rect429" />
      </g>
    </mask>
    <mask
       maskUnits="userSpaceOnUse"
       id="mask433">
      <g
         id="g437"
         transform="matrix(0.92462292,-0.24047922,0.21250283,0.817056,-43.122329,65.867855)">
        <rect
           fill="#ffffff"
           x="0"
           y="0"
           width="354"
           height="354"
           id="rect435" />
      </g>
    </mask>
    <mask
       maskUnits="userSpaceOnUse"
       id="mask439">
      <g
         id="g443"
         transform="matrix(0.9545211,-0.35510079,0.34912734,0.93846427,-69.728876,77.761922)">
        <rect
           fill="#ffffff"
           x="0"
           y="0"
           width="354"
           height="354"
           id="rect441" />
      </g>
    </mask>
    <mask
       maskUnits="userSpaceOnUse"
       id="mask445">
      <g
         id="g449">
        <rect
           fill="#ffffff"
           x="0"
           y="0"
           width="354"
           height="354"
           id="rect447" />
      </g>
    </mask>
    <mask
       maskUnits="userSpaceOnUse"
       id="mask451">
      <g
         id="g455">
        <rect
           fill="#ffffff"
           x="0"
           y="0"
           width="354"
           height="354"
           id="rect453" />
      </g>
    </mask>
    <mask
       maskUnits="userSpaceOnUse"
       id="mask457">
      <g
         id="g461">
        <rect
           fill="#ffffff"
           x="0"
           y="0"
           width="354"
           height="354"
           id="rect459" />
      </g>
    </mask>
    <mask
       maskUnits="userSpaceOnUse"
       id="mask463">
      <g
         id="g467">
        <rect
           fill="#ffffff"
           x="0"
           y="0"
           width="354"
           height="354"
           id="rect465" />
      </g>
    </mask>
    <mask
       maskUnits="userSpaceOnUse"
       id="mask469">
      <g
         id="g473">
        <rect
           fill="#ffffff"
           x="0"
           y="0"
           width="354"
           height="354"
           id="rect471" />
      </g>
    </mask>
  </defs>
  <path
     fill="none"
     stroke="none"
     d="M 0,0 H 354.31 V 354.31 H 0 Z"
     id="path359"
     mask="url(#mask463)" />
  <path
     fill="#ff0066"
     stroke="none"
     d="m 291.94,59.56 c -0.06,-0.06 -0.19,-0.06 -0.38,-0.06 -0.18,-0.06 -0.43,-0.19 -0.75,-0.19 -0.43,-0.06 -0.81,-0.06 -1.18,-0.06 -0.38,-0.06 -0.63,-0.06 -0.82,0 -0.25,0 -0.37,0 -0.37,0.06 -0.38,0 -1.31,0.19 -4.5,1 -2.81,0.63 -6.56,1.5 -13.5,3.32 -7.69,1.93 -15.81,4.06 -24,6.18 -7.63,1.88 -12.31,3 -16.06,3.94 -4.13,0.94 -5.69,1.25 -6.32,1.44 -0.43,-0.13 -1.37,-0.38 -3.56,-0.75 -2,-0.44 -4.44,-0.94 -8.31,-1.38 -4.19,-0.5 -8.31,-0.75 -12.44,-0.87 -4,-0.13 -6.5,0 -8.56,0.19 -2.31,0.06 -3.25,0.18 -3.69,0.25 -0.62,-0.25 -2.06,-0.82 -6,-2.44 -3.62,-1.56 -8.25,-3.5 -15.69,-6.56 -8.12,-3.44 -16.31,-6.88 -24,-9.94 -7.06,-2.81 -10.87,-4.25 -13.75,-5.25 -3.37,-1.25 -4.37,-1.5 -4.75,-1.56 -0.31,-0.32 -1,-0.69 -2.5,-0.44 -1.43,-0.13 -3.18,0.31 -5.62,2.56 -2.63,2.56 -5.06,6.06 -7.38,10.31 -2.25,4 -3.5,7.32 -4.5,10.25 -1.18,2.88 -1.62,4.25 -1.81,5 0.69,-0.56 2.38,-1.56 6.5,-3 3.69,-1.68 8.25,-3.31 15.69,-4.25 7.87,-0.87 15.81,-0.75 23.75,0.38 7.31,1.19 11.81,3.12 15.5,5 4,1.62 5.62,2.69 6.37,3.31 0.82,0.31 2.44,1.19 5.69,3.81 3.19,2.19 6.81,5.13 11,10.5 4.19,5.82 7.56,12 10,18.5 2.13,6.07 2.5,10.07 2.56,13.5 0.32,3.63 0.13,5.19 0,5.94 0.07,-0.37 0.25,-1.06 0.82,-2.81 0.43,-1.63 1,-3.63 2.31,-6.63 1.37,-3.25 2.87,-6.31 4.69,-9.37 1.68,-2.94 2.93,-4.63 4.06,-6.06 1.12,-1.63 1.62,-2.32 1.94,-2.63 0.56,-1.25 2.12,-3.5 6.68,-7.56 3.88,-4.25 9,-8.75 18.19,-13.31 9.88,-4.63 20.38,-7.69 31.19,-9.19 10.12,-1.19 16.75,-0.25 22.25,1.06 5.87,0.81 8.37,1.69 9.56,2.31 -0.06,-0.31 -0.25,-0.87 -0.56,-2.12 -0.31,-1.25 -0.69,-2.69 -1.44,-4.56 -0.87,-2 -1.81,-3.69 -2.81,-5.13 -1,-1.31 -1.75,-1.81 -2.38,-2.12 -0.68,-0.5 -1,-0.57 -1.12,-0.57 z M 197,138.5 c -0.06,0.25 -0.19,0.94 -0.62,2.38 -0.38,1.25 -0.88,2.75 -1.88,5.18 -1.12,2.57 -2.31,5.07 -3.69,7.63 -1.37,2.31 -2.37,3.75 -3.18,4.94 -0.88,1.31 -1.32,1.81 -1.44,2.12 -0.63,1.19 -2.25,3.56 -6.88,8.06 -4.06,4.5 -9.31,9.44 -18.81,15.32 -10.37,6.25 -21.31,11.31 -32.5,14.37 -10.56,2.38 -17.37,1.69 -22.94,0.31 -6.06,-0.93 -8.56,-2.31 -9.62,-3.25 -0.19,-0.12 -0.56,-0.25 -1.25,-0.62 -0.69,-0.38 -1.5,-0.75 -2.69,-1.44 -1.31,-0.75 -2.56,-1.5 -3.81,-2.31 -1.19,-0.81 -1.94,-1.38 -2.5,-1.81 -0.69,-0.57 -0.94,-0.82 -1,-0.88 -0.19,1.19 -0.19,3.75 0.81,9.38 0.5,5.31 1.56,11.5 5.13,20.31 3.93,9.25 9,17.75 14.93,25.56 5.63,7.13 10.13,10.69 14.07,13.38 3.93,3.25 5.87,4.37 6.87,4.81 0.06,-0.19 0.25,-0.5 0.88,-1.13 0.43,-0.68 1.06,-1.43 2.25,-2.31 1.25,-1 2.68,-1.81 4.25,-2.37 1.43,-0.57 2.56,-0.69 3.5,-0.69 0.93,-0.13 1.43,-0.13 1.68,-0.06 0.69,-0.13 1.94,-0.13 3.82,0.56 1.81,0.62 3.56,1.69 5.31,3.56 1.5,2.19 2.31,4.56 3.12,6.19 0.82,1.12 1.32,1.12 1.82,0.69 0.62,-0.32 1.06,-1 1.31,-1.44 0.06,-0.44 0.44,-1.06 1.87,-1.63 1.25,-0.81 3,-1.37 6.07,-0.75 3.37,0.88 6.81,2.63 9.93,5 2.63,2.19 3.88,4.25 4.63,6.13 0.87,1.75 1,2.62 0.94,3.06 -0.07,0 -0.07,0.13 0,0.38 0,0.12 0,0.31 0.06,0.68 0,0.32 0,0.69 0,1.07 -0.06,0.25 -0.06,0.43 -0.06,0.62 -0.07,0.13 -0.07,0.25 0,0.31 0,-0.06 0.06,-0.06 0.25,0 0.12,0 0.25,0 0.56,0.07 0.25,0 0.5,0.06 0.81,0.12 0.25,0 0.44,0 0.63,0 0.12,0 0.18,0 0.25,0.06 -0.07,-0.06 -0.07,-0.12 -0.07,-0.31 -0.06,-0.19 -0.06,-0.37 -0.06,-0.69 -0.06,-0.37 -0.06,-0.75 0,-1.12 0,-0.38 0,-0.63 0.06,-0.81 0,-0.25 0,-0.38 0.07,-0.38 -0.13,-0.44 -0.07,-1.31 0.87,-3.06 0.69,-1.88 1.94,-3.94 4.63,-6.13 3.06,-2.37 6.56,-4.12 9.93,-5 3,-0.62 4.75,-0.06 6.07,0.75 1.37,0.57 1.75,1.19 1.87,1.63 0.19,0.44 0.63,1.12 1.31,1.44 0.44,0.43 0.94,0.43 1.82,-0.69 0.75,-1.63 1.56,-4 3.12,-6.19 1.69,-1.87 3.5,-2.94 5.38,-3.56 1.81,-0.69 3.06,-0.69 3.75,-0.56 0.37,-0.13 1.12,-0.19 2.68,0.12 1.44,0.13 3.13,0.5 5.25,1.81 2.13,1.44 3.94,3.25 5.44,5.44 1.31,2 1.81,3.56 2.13,4.94 0.43,1.31 0.56,2 0.62,2.31 0.75,-0.31 2.44,-1.06 6.06,-3.19 3.44,-1.87 7.57,-4.25 13.25,-8.62 5.88,-4.81 11.32,-9.88 16.32,-15 4.56,-4.75 6.93,-7.75 8.81,-10.19 2.19,-2.69 3,-3.81 3.37,-4.31 0.25,-0.38 0.82,-1.19 2.07,-2.81 1.12,-1.57 2.37,-3.32 4.31,-6.07 1.94,-2.93 3.75,-5.81 5.56,-8.75 1.63,-2.81 2.56,-4.62 3.31,-6.12 0.82,-1.69 1.13,-2.38 1.25,-2.69 -0.75,0.13 -2.43,0.38 -6.37,0.69 -3.63,0.37 -8,0.69 -15.13,0.69 -7.68,-0.07 -15.37,-0.44 -23,-1.13 -7.18,-0.81 -11.62,-1.69 -15.25,-2.62 -4,-0.94 -5.68,-1.57 -6.37,-1.88 -1.13,-0.19 -3.25,-0.75 -7.19,-3.06 -4,-1.81 -8.37,-4.44 -13.44,-10.19 -5.25,-6.44 -9.37,-13.69 -12.37,-21.5 -2.75,-7.44 -3.25,-12.62 -3.19,-17.06 -0.44,-4.69 -0.06,-6.75 0.25,-7.69 z m -14.94,39.88 c -0.18,-0.07 -0.25,-0.13 0.44,0.12 0.5,0.13 1.5,0.44 3.88,1.25 2.68,0.94 5.81,2.06 8.68,3.25 2.44,1.06 3.69,1.75 4.5,2.31 0.88,0.57 1,0.69 1,0.82 0.19,-0.19 0.5,-0.13 0.07,1.62 -0.07,1.38 -0.63,3.69 -3.19,8.81 -3.5,6.07 -8,12.88 -11.75,18.75 -2.94,4.82 -3.88,6.69 -4.38,7.75 -0.81,1.44 -0.68,1.38 -0.62,1 0.06,0.44 0.19,0.5 -0.5,-0.93 -0.81,-1.32 -2.06,-3.57 -4.13,-8.07 -2.25,-5.12 -4.56,-10.75 -6.81,-15.93 -2.25,-4.69 -3.69,-7.19 -4.5,-8.75 -0.69,-1.82 -0.44,-1.94 -0.12,-1.82 -0.07,-0.12 0,-0.31 0.93,-1 0.75,-0.75 1.94,-1.68 4.32,-3.06 2.62,-1.56 5.56,-3.06 8.12,-4.31 2.13,-1.13 3.06,-1.5 3.63,-1.69 0.62,-0.31 0.56,-0.25 0.43,-0.12 -0.06,-0.07 -0.06,-0.07 0,0 z"
     id="path361"
     mask="url(#mask457)" />
  <path
     fill="#ff0066"
     stroke="none"
     d="m 193.63,289.75 c 0.06,0 0.06,0.06 -0.19,0 -0.31,0 -0.75,-0.06 -1.69,-0.56 -1.19,-0.56 -2.5,-1.31 -3.5,-2.38 -0.87,-1.18 -1.19,-2.25 -1.25,-3.25 -0.19,-1.06 0,-1.62 0.13,-1.93 -0.13,-0.32 -0.07,-0.88 0.62,-2 0.5,-1.25 1.44,-2.63 3.44,-4.07 2.25,-1.56 4.81,-2.75 7.31,-3.31 2.19,-0.44 3.5,-0.06 4.5,0.5 1,0.38 1.25,0.75 1.38,1.06 0.18,0.32 0.5,0.75 1,1 0.31,0.25 0.62,0.32 1.31,-0.43 0.56,-1.07 1.19,-2.63 2.37,-4.07 1.25,-1.25 2.63,-1.93 4,-2.31 1.38,-0.44 2.25,-0.44 2.82,-0.37 0.43,-0.13 1.31,-0.19 2.93,0.25 1.57,0.25 3.32,0.81 5.13,2.56 1.75,1.94 3,4.31 3.75,6.94 0.62,2.37 0.5,4 0.25,5.37 -0.13,1.38 -0.31,1.88 -0.44,2.13 0.13,0.31 0.13,0.93 -1.37,1.81 -1.38,0.87 -3.57,1.75 -8.07,2.5 -5.31,0.56 -11.12,0.75 -16.18,0.81 -4.38,0.06 -6.25,-0.12 -7.32,-0.19 -1.31,-0.06 -1.25,-0.06 -0.93,-0.06 0,0 0,0 0,0 z"
     id="path363"
     mask="url(#mask451)" />
  <path
     fill="#ff0066"
     stroke="none"
     d="m 160.63,288.06 c -0.07,0 -0.13,0 0.18,-0.06 0.25,0 0.63,0 1.57,-0.5 1,-0.56 2.12,-1.37 3.12,-2.56 0.75,-1.25 1.06,-2.38 1.19,-3.44 0.12,-1.06 -0.06,-1.69 -0.13,-2 0.07,-0.37 0,-1 -0.56,-2.19 -0.5,-1.31 -1.37,-2.75 -3.12,-4.31 -2.13,-1.69 -4.44,-2.94 -6.69,-3.5 -2.06,-0.44 -3.25,-0.06 -4.06,0.56 -0.94,0.38 -1.19,0.82 -1.25,1.13 -0.19,0.31 -0.5,0.75 -0.88,1 -0.37,0.31 -0.69,0.31 -1.25,-0.44 -0.56,-1.12 -1.19,-2.75 -2.19,-4.25 -1.18,-1.31 -2.43,-2.06 -3.62,-2.5 -1.25,-0.5 -2.06,-0.5 -2.5,-0.37 -0.44,-0.13 -1.25,-0.25 -2.69,0.25 -1.5,0.25 -3.06,0.87 -4.69,2.68 -1.68,2.07 -2.81,4.63 -3.43,7.38 -0.63,2.5 -0.44,4.25 -0.19,5.69 0.06,1.43 0.25,2 0.37,2.31 -0.18,0.31 -0.18,0.94 1.25,1.87 1.19,0.94 3.19,1.88 7.32,2.63 4.75,0.62 10.06,0.87 14.75,0.94 3.93,0.06 5.68,-0.13 6.68,-0.25 1.19,-0.07 1,-0.07 0.82,-0.07 -0.07,0 -0.07,0 0,0 z"
     id="path365"
     mask="url(#mask445)" />
  <use
     xlink:href="#AS_leftEye_a2"
     transform="matrix(0.92028014,0.34822019,-0.34236248,0.93602585,90.792864,-48.506167)"
     id="use367"
     mask="url(#mask439)" />
  <use
     xlink:href="#AS_rightEye_a4"
     transform="matrix(1.0129992,0.29815001,-0.26346443,1.1463624,61.036722,-62.65151)"
     id="use369"
     mask="url(#mask433)" />
</svg>
