<svg
    xmlns:inkscape="http://www.inkscape.org/namespaces/inkscape"
    xmlns:rdf="http://www.w3.org/1999/02/22-rdf-syntax-ns#"
    xmlns="http://www.w3.org/2000/svg"
    xmlns:cc="http://creativecommons.org/ns#"
    xmlns:dc="http://purl.org/dc/elements/1.1/"
    xmlns:sodipodi="http://sodipodi.sourceforge.net/DTD/sodipodi-0.dtd"
    xmlns:svg="http://www.w3.org/2000/svg"
    xmlns:ns1="http://sozi.baierouge.fr"
    xmlns:xlink="http://www.w3.org/1999/xlink"
    id="svg2896"
    sodipodi:docname="Новый документ 3"
    viewBox="0 0 500 387.65"
    version="1.1"
    inkscape:version="0.48.0 r9654"
  >
  <sodipodi:namedview
      id="base"
      fit-margin-left="0"
      inkscape:zoom="0.35"
      borderopacity="1.0"
      inkscape:current-layer="layer1"
      inkscape:cx="284.99997"
      inkscape:cy="-114.7473"
      inkscape:window-maximized="1"
      showgrid="false"
      fit-margin-right="0"
      inkscape:document-units="px"
      bordercolor="#666666"
      inkscape:window-x="-4"
      inkscape:window-y="-4"
      fit-margin-bottom="0"
      inkscape:window-width="1280"
      inkscape:pageopacity="0.0"
      inkscape:pageshadow="2"
      pagecolor="#ffffff"
      inkscape:window-height="904"
      showborder="false"
      fit-margin-top="0"
  />
  <g
      id="layer1"
      inkscape:label="Layer 1"
      inkscape:groupmode="layer"
      transform="translate(-90 -29.967)"
    >
    <path
        id="path2917"
        style="fill:#000000"
        inkscape:connector-curvature="0"
        d="m351.41 29.982c-23.225 0.2224-43.857 2.9362-59.634 8.0647-22.43 7.291-38.006 17.098-52.976 33.295-10.361 11.21-22.272 18.07-37.142 21.383-21.729 4.8404-30.269 9.4968-44.467 24.416-9.8673 10.369-19.088 22.288-33.739 43.579-1.4182 2.0611-5.4456 6.7279-8.9525 10.358-3.507 3.6304-7.709 8.6373-9.3228 11.098-1.6133 2.461-3.3992 5.0177-3.9951 5.6971-2.1475 2.4478-8.6568 16.004-8.6568 18.053 0 1.1529-0.5815 3.216-1.2579 4.5133-1.6912 3.2424-1.6912 16.734 0 19.977 0.6766 1.2973 1.2579 3.1799 1.2579 4.2173s0.6449 2.9162 1.4798 4.1434c0.835 1.2272 2.4997 3.7179 3.6994 5.5491 1.1999 1.8312 4.8134 5.492 7.9907 8.1387 7.2488 6.038 14.444 13.625 22.344 23.602 5.8779 7.4226 13.91 19.033 13.91 20.125 0 0.28437 0.7001 1.5354 1.5538 2.7376 2.7188 3.8296 10.553 20.002 13.614 28.042 3.9847 10.467 6.9523 15.729 9.9142 17.535 4.7822 2.9163 9.3354 1.2297 14.576-5.2532 3.2881-4.0675 6.7129-12.456 5.9932-14.724-0.2638-0.82988 0.092-2.5792 0.7396-3.8474 2.5982-5.084 3.1733-13.215 2.6636-35.218-0.478-20.646-1.4386-38.989-2.5895-47.944-0.4449-3.4632-0.027-6.3969 2.2935-15.242 3.2295-12.31 5.6466-23.022 7.6948-33.961 1.7071-9.1144 6.9635-20.722 11.838-26.192 9.0375-10.14 21.022-16.436 34.701-18.201 9.3299-1.2039 10.605-2.0054 10.654-7.0289 0.079-7.8472 3.8896-17.751 8.8045-22.714 7.6536-7.7283 14.102-9.8444 29.078-9.7665 10.041 0.0523 12.228 0.36694 22.788 3.1075 6.4307 1.6689 12.991 3.5554 14.576 4.2173 2.2656 0.94676 3.035 0.9519 3.5514 0.14797 0.8912-1.388 0.2555-25.156-0.7401-27.746-0.4375-1.1386-1.3067-4.9511-1.9235-8.4347-0.6172-3.4836-2.0688-8.3673-3.2555-10.876-1.918-4.0544-2.0714-4.7811-1.1099-6.733 0.595-1.2079 1.9026-2.7598 2.8857-3.4035 1.6478-1.079 2.0079-0.9484 5.105 1.8497 2.5914 2.341 3.4035 3.6749 3.4035 5.6971 0 1.4419 0.3234 2.9732 0.7399 3.4035 0.8578 0.88665 1.2172 5.4292 2.4415 28.782 1.1066 21.111 1.283 21.827 3.8474 21.827 3.94 0 6.4634-3.4221 18.719-25.526 3.7733-6.8054 8.8762-9.9279 18.719-11.246 6.949-0.93079 21.988 4.4153 37.882 13.392l7.9166 4.4393h23.824c30.511 0.001 35.825 0.8536 42.248 6.8809 3.5642 3.3446 5.2817 6.6396 5.845 11.172 0.4001 3.2201 0.9723 4.096 4.9571 7.3249 5.8475 4.7382 21.819 25.619 26.784 34.997 3.4769 6.5672 3.9021 7.9654 4.2911 14.206 0.4222 6.764 0.4106 7.0396-2.6636 13.096-3.102 6.1114-3.1236 6.251-1.7757 8.8786 8.5997 16.764 22.536 29.447 32.407 29.447 3.466 0 9.3722-4.5332 11.838-9.0266 0.8874-1.6176 2.7166-4.748 3.9952-6.9549 2.1252-3.6673 2.3775-4.9684 2.8856-15.094 0.3057-6.093 1.0425-13.333 1.7019-16.129 0.6594-2.7967 1.234-7.4884 1.2577-10.432 0.013-2.9766 0.7176-7.6775 1.6277-10.58 2.2933-7.3111 2.3508-21.881 0.074-27.746-0.8824-2.2734-1.8122-5.1117-2.0717-6.363-0.3402-1.6367-1.5782-2.9159-4.4393-4.5133-4.0299-2.2501-5.1803-3.6668-9.3966-11.764-3.922-7.5319-14.176-19.374-23.676-27.302-8.5311-7.1189-22.386-17.157-23.75-17.239-0.7503-0.0453-4.7284-0.18681-8.8047-0.29596-7.8066-0.20894-7.3759-0.0498-22.492-7.1029-3.7811-1.7641-7.0276-3.2555-7.1768-3.2555-0.1498 0-5.7176-3.0231-12.43-6.733-10.963-6.0587-12.698-6.7634-16.722-6.8069-4.321-0.0468-4.5236 0.10451-6.9547 3.4035-1.386 1.881-3.8865 4.0332-5.5493 4.8092-4.4388 2.0717-11.997 0.57262-20.865-4.1434-7.7964-4.146-15.944-6.3826-28.412-7.7688-15.328-1.7042-30.236-2.4271-44.171-2.2936zm89.156 76.356 3.9215 2.5156c4.1313 2.62 15.867 13.971 19.607 18.941 1.1926 1.5852 2.7159 5.2688 3.4035 8.2127 1.9758 8.4597 3.6566 12.368 6.9549 16.425 4.2838 5.2688 5.7249 6.3665 10.432 7.9168 8.0946 2.6658 15.228 7.6598 18.571 13.096 0.8357 1.3588 2.1301 5.6207 2.8856 9.4705 1.3231 6.7414 1.3155 7.3084-0.2959 15.168-1.4949 7.2892-2.0161 8.5353-4.8094 11.394l-3.1814 3.1815-0.4441 16.647c-0.5536 18.679-1.2707 22.745-5.179 29.817-2.8622 5.1782-5.1368 6.5122-7.1029 4.1434-0.8985-1.0826-0.7832-2.176 0.5178-6.437 1.292-4.23 1.5461-7.5989 1.4798-19.163-0.1122-19.685-0.7477-22.426-7.6948-34.479l-5.7711-9.9884-0.9617-10.728c-0.5226-5.875-1.1853-13.616-1.4798-17.239-0.5931-7.2888-1.1405-8.6566-3.4037-8.6566-2.9465 0-4.8572 10.926-4.883 27.376-0.022 13.641 0.9302 18.054 4.5132 21.013 1.5115 1.248 3.9665 4.6768 5.4751 7.6208 2.7195 5.3042 2.7377 5.4346 2.7377 16.721-0.0002 10.317-0.1825 11.522-1.628 12.578-2.4929 1.822-4.3401 0.0319-9.5444-9.1746-2.5338-4.4822-6.5555-10.171-8.8786-12.578-3.6483-3.7811-4.5496-4.2936-6.8808-4.0694-4.0467 0.38945-4.0849 3.1153-0.074 7.4728 10.28 11.169 17.483 30.417 17.535 46.835 0.018 5.7861 0.7209 7.1961 3.7733 7.7688 4.8825 0.91592 5.1081 1.4608 8.1387 20.717 0.5907 3.7529 1.2212 6.9913 1.4059 7.1769 0.1851 0.18553 0.8183 0.0389 1.4798-0.36994 0.9295-0.5746 1.3024-3.4469 1.6275-12.578 0.3343-9.3931 0.7697-12.3 1.9239-14.058 2.5537-3.8883 7.9732-3.9387 11.764-0.14798 1.8884 1.888 2.0212 2.5173 1.9975 12.134-0.018 10.889-0.3989 13.815-3.6992 31.519-3.3762 18.112-9.0232 38.782-11.69 42.765-0.5983 0.89337-1.1097 2.7215-1.1097 3.9954 0 2.0528 0.1833 2.1788 1.6278 1.4058 2.1704-1.1616 7.6645-9.2318 10.654-15.76 6.8474-14.95 10.713-33.588 11.616-55.861 0.3584-8.8319 1.0673-17.212 1.5538-18.571 1.2116-3.3838 3.1646-18.265 4.2175-31.667 0.4799-6.1144 1.31-13.194 1.7757-15.686 0.4655-2.491 0.9708-11.954 1.1838-21.013 0.2143-9.0584 0.5983-17.598 0.8138-19.015 0.5898-3.8652 3.8247-6.8809 7.3247-6.8809 3.9812 0 5.7479-3.3918 5.1054-9.6185-0.7638-7.4019-3.8096-12.753-11.912-20.717-10.903-10.715-21.361-23.924-28.633-36.254-2.2367-3.7927-5.4789-8.3809-7.177-10.136l-3.0334-3.1815h-18.275-18.275zm-35.366 0.51792c-2.1112 0.15195-4.7518 3.1392-5.2533 6.289-0.4306 2.7072-0.1269 3.3568 2.2199 5.5491 3.435 3.2089 7.5504 3.4482 9.4705 0.51792 1.2092-1.8455 1.1919-2.2449-0.37-5.5491-2.0525-4.3411-3.3031-6.029-5.1792-6.733-0.2725-0.10219-0.5862-0.0957-0.8879-0.074zm28.338 16.203c-4.2399 0.0741-8.9141 1.5125-14.798 4.4393-8.5888 4.2725-12.504 8.2949-12.504 12.948 0 3.0499 2.0728 6.289 3.9953 6.289 2.4583 0 8.7269-2.6959 10.876-4.6613 2.714-2.4814 4.4272-2.4674 6.1409 0.14797 1.7899 2.7318 1.3041 5.4602-1.1097 6.659-1.0555 0.52419-3.3526 2.3933-5.1053 4.2173-1.7528 1.824-4.2855 3.6113-5.6973 3.9214-1.4118 0.31011-2.8014 1.0208-3.0334 1.6277-0.5265 1.3723 5.6781 10.686 7.6948 11.542 0.8142 0.34558 5.2372 0.86426 9.7665 1.1838 12.572 0.88745 12.976 0.8759 16.13 0 1.6211-0.45028 4.8976-2.1488 7.3247-3.8474 3.7037-2.5919 4.6905-3.845 5.9932-7.6208 0.8535-2.4744 1.6964-6.1579 1.9237-8.2127 0.3698-3.3593 0.063-4.3612-3.2555-9.5445-6.0372-9.4294-8.5467-12.524-12.282-15.094-4.0027-2.7539-7.8203-4.0695-12.06-3.9954zm-191.85 27.154c-1.6486 0.13044-3.4191 0.53554-4.9571 1.1098-5.1747 1.9317-14.246 7.9565-18.941 12.652-2.1441 2.1439-4.9538 6.0666-6.215 8.7306-2.6936 5.6884-5.1063 18.263-6.0673 31.667-0.6871 9.5874-1.439 11.955-6.5848 20.939-1.2352 2.1559-1.3725 4.3672-1.0359 16.943 0.8479 31.659 0.5093 59.403-0.9619 72.805-0.7908 7.2062-1.4798 13.3-1.4798 13.614 0.0002 0.31404 0.9395 1.5898 2.0717 2.8116 1.1324 1.2218 2.0482 3.2171 2.0716 4.4393 0.041 2.6889 3.2437 11.597 4.9574 13.836 2.772 3.6215 7.4751 6.9549 9.8403 6.9549 3.0268 0 7.6674-3.9759 10.062-8.5827 1.4049-2.7019 1.8488-5.4011 2.2198-13.54l0.5178-10.136 2.7377-2.5156c2.6653-2.3796 3.096-2.4862 8.5086-2.0717 8.2467 0.63144 12.206 3.7638 17.683 13.91 5.594 10.363 13.136 20.884 19.829 27.524 7.3712 7.3121 17.651 15.076 22.345 16.869 3.2642 1.2469 3.8324 1.2612 4.0692 0.22197 0.5109-2.2433-0.5495-3.4521-8.6568-9.6185-17.63-13.409-28.451-27.762-32.333-42.987-1.311-5.1414-5.2836-8.3686-13.614-11.098-3.9312-1.2881-8.7924-3.6096-10.802-5.1052-8.5095-6.3321-17.019-24.272-15.464-32.629 0.3923-2.1046 0.7401-8.4703 0.7401-14.132-0.016-10.188-0.1096-10.353-3.5514-18.793-1.9128-4.6905-3.4776-9.6267-3.4776-10.95 0-1.3236 1.1313-4.5115 2.4415-7.1029 2.1778-4.3059 3.6419-6.698 10.211-16.203 2.5572-3.7009 2.6986-6.2661 0.8137-11.764-1.7606-5.1357-1.6048-9.3866 0.5178-15.464 2.4387-6.9811 11.154-22.435 15.02-26.636 1.792-1.9475 3.0632-3.9698 2.8857-4.5133-0.3244-0.98716-2.6537-1.4012-5.4013-1.1838zm31.593 7.9908c-2.7296 0.15222-5.0478 0.56731-6.6587 1.3318-3.9385 1.869-11.936 9.8253-14.798 14.724-2.1543 3.6857-2.3837 4.8767-2.2937 10.802 0.1617 10.666 2.9993 14.745 11.986 17.165 9.9826 2.6879 22.217 0.40305 35.293-6.659 7.6394-4.1262 9.4591-7.0516 9.2484-14.798-0.169-6.2235-1.2778-9.7307-2.9595-9.1746-1.0278 0.33983-1.8735 1.8-4.8833 8.3607-1.0195 2.2224-2.5433 4.4684-3.3296 4.9572-2.387 1.4839-4.765-1.731-5.3271-7.1769-0.5152-4.9905-0.2313-5.3803 6.881-11.024l2.3677-1.8497-1.9237-1.7017c-3.9384-3.3421-15.413-5.4138-23.602-4.9572zm130.22 66.886c-1.1301 0.0105-2.483 0.0393-4.2911 0.14798-4.047 0.24327-12.935 0.75267-19.755 1.1098l-12.356 0.6659-8.0647 7.3988c-4.3985 4.0763-8.8814 8.7685-9.9885 10.432-3.5718 5.3672-5.6115 12.752-5.993 21.679l-0.3698 8.2127 4.5871 9.1006c10.58 21.075 22.516 34.152 31.445 34.405 1.4672 0.0416 4.7044-0.63938 7.177-1.4798 5.1676-1.7565 7.4163-1.2911 7.0287 1.4058-0.3354 2.3349-5.0167 5.0881-12.578 7.3249-3.1702 0.93786-7.8233 2.6087-10.358 3.6994-9.8278 4.2286-36.284 6.7999-45.651 4.4393-9.4959-2.393-21.013-10-21.013-13.836-0.0003-2.7868-10.29-10.876-13.836-10.876-2.4318 0-2.3032 2.2442 0.296 4.9572 1.3578 1.4172 2.3034 3.6914 2.7374 6.437 0.4534 2.8665 1.8536 5.9746 4.3655 9.7665 4.783 7.2208 9.0152 13.847 11.468 17.979 1.0749 1.8117 4.2783 5.4952 7.1767 8.2127 2.8987 2.7175 6.8932 7.0465 8.8787 9.6185 2.2996 2.979 5.3461 5.6805 8.3605 7.3988 7.2239 4.1175 10.466 8.0652 12.356 15.02 0.8803 3.2389 1.4592 6.993 1.2577 8.3607-0.5635 3.84 1.7153 5.7489 10.876 8.9526 9.627 3.3667 25.904 9.218 30.039 10.802 1.811 0.69381 6.6945 1.1474 13.096 1.1838 9.5896 0.0546 10.718-0.12802 19.311-2.9595 7.6043-2.5058 10.28-3.8826 15.759-8.0647 6.5678-5.0123 10.434-9.2977 17.387-19.385 3.4567-5.0136 3.6253-5.6736 3.6253-10.802 0-3.8128-0.3367-5.808-1.1838-6.511-2.2029-1.8285-8.3722 2.1076-16.869 10.728-12.692 12.876-21.795 17.202-36.254 17.239-20.822 0.054-36.85-8.5542-48.314-25.97-4.9271-7.4842-10.468-20.36-9.8406-22.862 0.4808-1.9145 3.4922-3.8521 6.0673-3.8474 0.7713 0.001 4.0062-0.7462 7.1767-1.6277 18.013-5.0084 51.75-9.931 67.773-9.9144h6.807l3.7735 3.4774c5.7649 5.3141 6.0969 6.5054 5.3272 16.425-0.3647 4.6896-0.4951 8.9784-0.296 9.5445 0.4929 1.4045 4.8297 1.258 10.062-0.29595l4.2911-1.2578-0.6658-5.9191c-1.0069-8.639-0.4815-16.376 1.4059-20.643 0.8964-2.0269 3.6197-6.3138 6.0669-9.5445 5.2895-6.9814 7.4592-13.385 8.2867-24.416 0.6698-8.9272 0.228-11.024-2.4415-11.024-1.6377 0-2.0573 0.58277-2.5156 3.5514-1.3172 8.5287-3.7324 13.877-8.6568 18.941-3.984 4.0971-5.1359 4.8519-6.7328 4.3653-4.5561-1.3883-13.568-1.526-18.053-0.22196-2.8558 0.83023-8.26 1.3851-14.576 1.4798-8.6555 0.12992-10.262-0.0395-11.69-1.3318-1.8489-1.6731-2.0908-3.7544-0.666-5.1792 0.7143-0.71424 1.618-0.60455 3.7733 0.29596 5.764 2.4083 7.8539 1.3703 8.8786-4.2174 0.3324-1.8117 1.6625-4.8348 2.9595-6.7329 3.1755-4.6477 8.9528-16.667 8.9528-18.645 0-0.87605 1.1677-4.9706 2.5894-9.1006 2.4155-7.0146 2.505-7.7829 1.628-12.06-0.5164-2.5183-0.8878-5.5286-0.8878-6.659 0-1.1303-0.7951-4.4062-1.7758-7.3249-2.4088-7.1677-9.8817-15.013-18.349-19.311-4.4033-2.2349-5.6364-2.769-9.0268-2.7376zm-104.47 38.844c-1.247 0.25866-3.3978 2.562-6.4369 6.9549-2.6115 3.7748-6.0701 8.0992-7.6948 9.5445-1.6244 1.4453-2.9595 3.3098-2.9595 4.2173 0 0.92515 1.9294 3.4758 4.3652 5.7711 2.3894 2.2514 5.1314 5.8394 6.1411 7.9908 1.289 2.7456 2.3241 3.9214 3.4776 3.9214 2.0627 0 2.1856-2.3234 0.3698-9.3226-1.5841-6.107-1.1033-11.213 1.7758-18.053 1.1234-2.669 2.1226-6.1699 2.2196-7.8428 0.1336-2.3094-0.2879-3.3827-1.2579-3.1815z"
    />
  </g>
  </svg>
